<?xml version="1.0" standalone="no"?>
<!DOCTYPE svg PUBLIC "-//W3C//DTD SVG 20010904//EN"
 "http://www.w3.org/TR/2001/REC-SVG-20010904/DTD/svg10.dtd">
<svg version="1.0" xmlns="http://www.w3.org/2000/svg"
 width="512.000000pt" height="512.000000pt" viewBox="0 0 512.000000 512.000000"
 preserveAspectRatio="xMidYMid meet">
<metadata>
Created by potrace 1.14, written by Peter Selinger 2001-2017
</metadata>
<g transform="translate(0.000000,512.000000) scale(0.100000,-0.100000)"
fill="#000000" stroke="none">
<path d="M1305 4684 c-142 -30 -230 -77 -326 -173 -57 -57 -85 -95 -111 -151
-66 -140 -63 -62 -63 -1435 0 -1163 1 -1254 18 -1314 57 -208 220 -371 428
-428 60 -17 152 -18 1324 -18 l1260 0 81 27 c186 64 312 189 388 388 21 55 21
59 24 1319 2 1238 2 1267 -18 1344 -53 210 -216 373 -425 427 -76 19 -110 20
-1319 19 -683 -1 -1250 -3 -1261 -5z m2474 -1273 c-182 -254 -285 -457 -399
-787 -21 -62 -44 -122 -49 -133 -6 -10 -45 -40 -86 -66 -42 -26 -75 -48 -73
-50 2 -2 37 3 78 10 129 22 288 35 434 34 146 0 291 -10 300 -20 5 -4 -84
-187 -100 -208 -2 -2 -61 4 -131 13 -162 20 -413 21 -617 0 -86 -8 -161 -14
-166 -12 -6 2 12 41 39 88 39 68 57 118 90 241 82 315 161 541 248 711 l54
106 117 27 c64 15 149 35 187 45 90 23 90 23 74 1z m-1033 -23 c-132 -187
-269 -448 -324 -620 -57 -176 -66 -226 -67 -379 l0 -136 -145 -32 c-80 -17
-149 -31 -154 -31 -11 0 0 175 20 300 12 81 49 229 70 284 5 14 -4 16 -81 16
-92 0 -262 -22 -335 -43 -42 -12 -43 -13 -90 -122 -87 -206 -153 -317 -230
-389 -57 -53 -99 -60 -144 -25 -32 25 -70 99 -80 153 -12 62 30 133 147 251
54 55 107 116 117 136 40 77 68 235 78 446 l7 137 148 30 c81 16 150 27 152
24 9 -9 -35 -243 -74 -392 -32 -121 -36 -146 -22 -141 43 18 249 65 355 81
l119 18 20 51 c28 67 131 269 155 303 18 24 37 31 189 64 92 20 172 37 177 37
5 1 1 -9 -8 -21z"/>
</g>
</svg>
